<?xml version="1.0" encoding="UTF-8"?>
<svg width="16px" height="17px" viewBox="0 0 16 17" version="1.1" xmlns="http://www.w3.org/2000/svg" xmlns:xlink="http://www.w3.org/1999/xlink">
    <!-- Generator: Sketch 51.3 (57544) - http://www.bohemiancoding.com/sketch -->
    <title>Fill 1</title>
    <desc>Created with Sketch.</desc>
    <defs></defs>
    <g id="web---final" stroke="none" stroke-width="1" fill="none" fill-rule="evenodd">
        <g id="GREEN-homepage" transform="translate(-952.000000, -739.000000)" fill="#2B4F61">
            <g id="Group-15" transform="translate(0.000000, -60.000000)">
                <path d="M967.825063,808.267693 C967.842557,808.230291 967.857359,808.192889 967.872834,808.154175 C967.899748,808.085277 967.921278,808.015067 967.939445,807.944857 C967.948865,807.907455 967.958957,807.872678 967.966358,807.83462 C967.986543,807.725696 968,807.616115 968,807.505879 C967.999327,807.386456 967.986543,807.277532 967.966358,807.16992 C967.958957,807.132518 967.948865,807.095772 967.939445,807.058371 C967.921278,806.98816 967.899748,806.918606 967.872834,806.851021 C967.858032,806.811651 967.842557,806.773593 967.825063,806.736191 C967.794113,806.670574 967.75778,806.607582 967.718082,806.544589 C967.69857,806.512437 967.680404,806.479628 967.658873,806.449445 C967.653939,806.442883 966.241435,804.546113 963.421362,800.759136 C962.807738,799.936298 961.627586,799.753883 960.783179,800.35231 C959.939445,800.950081 959.752397,802.102316 960.366022,802.924498 L962.40471,805.660072 L953.888646,805.660072 C952.84508,805.660072 952,806.484878 952,807.501942 C952,808.519006 952.84508,809.343812 953.888646,809.343812 L962.402691,809.343812 L960.366022,812.074137 C959.752397,812.896974 959.938772,814.049209 960.782506,814.64698 C961.117578,814.88517 961.507149,815 961.89201,815 C962.475357,815 963.051304,814.73622 963.42069,814.241467 L967.639361,808.585279 C967.680404,808.524255 967.697897,808.492103 967.71741,808.461263 C967.757107,808.397614 967.794113,808.333966 967.825063,808.267693 Z" id="Fill-1" transform="translate(960.000000, 807.500000) rotate(90.000000) translate(-960.000000, -807.500000) "></path>
            </g>
        </g>
    </g>
</svg>